<svg width="16" height="11" viewBox="0 0 16 11" fill="none" xmlns="http://www.w3.org/2000/svg">
<path d="M15.8 5C13.8 3 12.4 1.8 11.1 1C10 0.3 9 0 8 0C7 0 6 0.3 5 0.9C3.7 1.6 2.3 2.9 0.3 4.9C0.1 5.1 0 5.2 0 5.4C0 5.6 0.1 5.7 0.2 5.8C2.2 7.8 3.6 9 4.9 9.8C6 10.4 7 10.7 8 10.7C9 10.7 10 10.4 11 9.8C12.3 9.1 13.7 7.8 15.7 5.8C15.9 5.7 16 5.5 16 5.4C16 5.2 15.9 5.1 15.8 5ZM11.8 8.3C11 8.9 10.4 9.2 9.8 9.5C9.2 9.7 8.7 9.8 8.2 9.9H8.1H8C7.5 9.9 6.9 9.8 6.4 9.5C5.8 9.2 5.1 8.8 4.3 8.3C3.7 7.5 3.3 6.5 3.3 5.4C3.3 4.3 3.7 3.2 4.3 2.4C5.1 1.8 5.7 1.5 6.3 1.2C6.9 1 7.4 0.9 7.9 0.8H8H8.1C8.6 0.8 9.2 0.9 9.7 1.2C10.3 1.5 11 1.9 11.8 2.4C12.4 3.2 12.8 4.2 12.8 5.3C12.8 6.5 12.4 7.5 11.8 8.3Z" fill="#CCD5DF"/>
<path d="M7.99995 2.09998C6.19995 2.09998 4.69995 3.49998 4.69995 5.39998C4.69995 7.19998 6.19995 8.69998 7.99995 8.69998C9.79995 8.69998 11.3 7.19998 11.3 5.39998C11.3 3.49998 9.79995 2.09998 7.99995 2.09998Z" fill="#CCD5DF"/>
</svg>
