<svg width="26" height="26" viewBox="0 0 26 26" fill="none" xmlns="http://www.w3.org/2000/svg">
<path opacity="0.4" d="M17.4688 12.9998C17.4688 13.8836 17.2067 14.7476 16.7156 15.4825C16.2246 16.2173 15.5267 16.7901 14.7101 17.1283C13.8936 17.4666 12.995 17.5551 12.1282 17.3826C11.2613 17.2102 10.4651 16.7846 9.84012 16.1596C9.21515 15.5347 8.78955 14.7384 8.61712 13.8716C8.44469 13.0047 8.53319 12.1062 8.87142 11.2896C9.20964 10.4731 9.78241 9.77516 10.5173 9.28413C11.2522 8.79309 12.1162 8.53101 13 8.53101C14.1852 8.53101 15.3218 9.00182 16.1599 9.83987C16.9979 10.6779 17.4688 11.8146 17.4688 12.9998Z" fill="#3842B0"/>
<path d="M25.1875 11.375H22.6038C22.2661 9.38161 21.3166 7.54264 19.887 6.11302C18.4574 4.6834 16.6184 3.73393 14.625 3.39625V0.8125C14.625 0.597012 14.5394 0.390349 14.387 0.237976C14.2347 0.0856024 14.028 0 13.8125 0L12.1875 0C11.972 0 11.7653 0.0856024 11.613 0.237976C11.4606 0.390349 11.375 0.597012 11.375 0.8125V3.39625C9.38161 3.73393 7.54264 4.6834 6.11302 6.11302C4.6834 7.54264 3.73393 9.38161 3.39625 11.375H0.8125C0.597012 11.375 0.390349 11.4606 0.237976 11.613C0.0856024 11.7653 0 11.972 0 12.1875L0 13.8125C0 14.028 0.0856024 14.2347 0.237976 14.387C0.390349 14.5394 0.597012 14.625 0.8125 14.625H3.39625C3.73393 16.6184 4.6834 18.4574 6.11302 19.887C7.54264 21.3166 9.38161 22.2661 11.375 22.6038V25.1875C11.375 25.403 11.4606 25.6097 11.613 25.762C11.7653 25.9144 11.972 26 12.1875 26H13.8125C14.028 26 14.2347 25.9144 14.387 25.762C14.5394 25.6097 14.625 25.403 14.625 25.1875V22.6038C16.6184 22.2661 18.4574 21.3166 19.887 19.887C21.3166 18.4574 22.2661 16.6184 22.6038 14.625H25.1875C25.403 14.625 25.6097 14.5394 25.762 14.387C25.9144 14.2347 26 14.028 26 13.8125V12.1875C26 11.972 25.9144 11.7653 25.762 11.613C25.6097 11.4606 25.403 11.375 25.1875 11.375ZM13 19.5C11.7144 19.5 10.4577 19.1188 9.38879 18.4046C8.31987 17.6903 7.48675 16.6752 6.99478 15.4874C6.50281 14.2997 6.37409 12.9928 6.6249 11.7319C6.8757 10.471 7.49476 9.31285 8.40381 8.40381C9.31285 7.49476 10.471 6.8757 11.7319 6.6249C12.9928 6.37409 14.2997 6.50281 15.4874 6.99478C16.6752 7.48675 17.6903 8.31987 18.4046 9.38879C19.1188 10.4577 19.5 11.7144 19.5 13C19.5 14.7239 18.8152 16.3772 17.5962 17.5962C16.3772 18.8152 14.7239 19.5 13 19.5Z" fill="#3842B0"/>
</svg>
