<svg width="16" height="15" viewBox="0 0 16 15" fill="none" xmlns="http://www.w3.org/2000/svg">
<path d="M4.7793 6.8249C4.7793 7.4249 4.9793 7.9249 5.1793 8.4249L9.6793 3.9249C9.2793 3.6249 8.6793 3.5249 8.0793 3.5249C6.2793 3.5249 4.7793 4.9249 4.7793 6.8249Z" fill="#A0AFBF"/>
<path d="M15.8789 6.425C14.8789 5.425 13.9789 4.625 13.1789 3.925L15.6789 1.325C15.9789 1.025 15.9789 0.525 15.6789 0.225C15.3789 -0.075 14.8789 -0.075 14.5789 0.225L1.97891 12.925C1.67891 13.225 1.67891 13.725 1.97891 14.025C2.07891 14.125 2.27891 14.225 2.47891 14.225C2.67891 14.225 2.87891 14.125 2.97891 14.025L5.47891 11.525C6.37891 11.925 7.17891 12.125 7.97891 12.125C8.97891 12.125 9.97891 11.825 10.9789 11.225C12.2789 10.525 13.6789 9.225 15.6789 7.225C15.7789 7.125 15.8789 6.925 15.8789 6.825C16.0789 6.625 15.9789 6.525 15.8789 6.425ZM11.8789 9.725C11.0789 10.325 10.4789 10.625 9.87891 10.925C9.27891 11.125 8.77891 11.225 8.27891 11.325H8.17891H8.07891C7.57891 11.325 6.97891 11.225 6.47891 10.925C6.37891 10.925 6.37891 10.825 6.27891 10.825L7.17891 9.925C7.47891 10.025 7.77891 10.025 8.07891 10.025C9.87891 10.025 11.3789 8.525 11.3789 6.725C11.3789 6.425 11.2789 6.125 11.2789 5.825L12.3789 4.725C12.6789 5.325 12.8789 6.025 12.8789 6.825C12.8789 7.925 12.4789 8.925 11.8789 9.725Z" fill="#A0AFBF"/>
<path d="M4.17969 9.5249C3.67969 8.7249 3.37969 7.8249 3.37969 6.8249C3.37969 5.7249 3.77969 4.6249 4.37969 3.8249C5.17969 3.2249 5.77969 2.9249 6.37969 2.6249C6.97969 2.4249 7.47969 2.3249 7.97969 2.2249H8.07969H8.17969C8.67969 2.2249 9.27969 2.3249 9.77969 2.6249C10.0797 2.7249 10.2797 2.8249 10.5797 3.0249L11.1797 2.4249C10.0797 1.8249 9.07969 1.5249 8.07969 1.5249C7.07969 1.5249 6.07969 1.8249 5.07969 2.4249C3.77969 3.1249 2.37969 4.4249 0.379688 6.4249C0.279688 6.5249 0.179688 6.7249 0.179688 6.8249C0.179688 7.0249 0.279688 7.1249 0.379688 7.2249C1.67969 8.5249 2.67969 9.4249 3.57969 10.1249L4.17969 9.5249Z" fill="#A0AFBF"/>
</svg>
