<svg width="28" height="38" viewBox="0 0 28 38" fill="none" xmlns="http://www.w3.org/2000/svg">
    <path 
        opacity="0.4" 
        d="M14 0C6.27083 0 0 6.27083 0 14C0 19.6445 1.96875 21.2188 12.5614 36.5801C12.7224 36.8126 12.9374 37.0027 13.188 37.1339C13.4385 37.2652 13.7171 37.3337 14 37.3337C14.2828 37.3337 14.5615 37.2652 14.812 37.1339C15.0626 37.0027 15.2776 36.8126 15.4386 36.5801C26.0312 21.2188 28 19.6445 28 14C28 6.27083 21.7292 0 14 0ZM14 21C12.6155 21 11.2622 20.5895 10.111 19.8203C8.95986 19.0511 8.06266 17.9579 7.53284 16.6788C7.00303 15.3997 6.86441 13.9922 7.1345 12.6344C7.4046 11.2765 8.07129 10.0292 9.05025 9.05025C10.0292 8.07129 11.2765 7.4046 12.6344 7.1345C13.9922 6.86441 15.3997 7.00303 16.6788 7.53284C17.9579 8.06266 19.0511 8.95986 19.8203 10.111C20.5895 11.2622 21 12.6155 21 14C21 15.8565 20.2625 17.637 18.9497 18.9497C17.637 20.2625 15.8565 21 14 21Z" 
        fill="#3842B0"/>
    <path 
        d="M14.0016 18.6659C13.0787 18.6659 12.1764 18.3922 11.409 17.8794C10.6415 17.3666 10.0434 16.6378 9.69019 15.785C9.33698 14.9323 9.24457 13.994 9.42463 13.0888C9.6047 12.1835 10.0492 11.352 10.7018 10.6994C11.3544 10.0467 12.186 9.60225 13.0912 9.42219C13.9965 9.24213 14.9348 9.33454 15.7875 9.68775C16.6402 10.041 17.369 10.6391 17.8818 11.4065C18.3946 12.174 18.6683 13.0762 18.6683 13.9992C18.6683 15.2369 18.1766 16.4239 17.3015 17.299C16.4263 18.1742 15.2393 18.6659 14.0016 18.6659Z" 
        fill="#3842B0"/>
</svg>
